# AST/ASF file generated using VICON BodyLanguage
# -----------------------------------------------
:version 1.10
:name VICON
:units
  mass 1.0
  length 0.45
  angle deg
:documentation
   .ast/.asf automatically generated from VICON data using
   VICON BodyBuilder and BodyLanguage model FoxedUp or BRILLIANT.MOD
:root
   order TX TY TZ RX RY RZ
   axis XYZ
   position 0 0 0  
   orientation 0 0 0 
:bonedata
  begin
     id 1 
     name lhipjoint
     direction 0.547975 -0.797114 0.253638 
     length 2.36201 
     axis 0 0 0  XYZ
  end
  begin
     id 2 
     name lfemur
     direction 0.34202 -0.939693 0  
     length 7.69075  
     axis 0 0 20  XYZ
    dof rx ry rz
    limits (-160.0 20.0)
           (-70.0 70.0)
           (-60.0 70.0)
  end
  begin
     id 3 
     name ltibia
     direction 0.34202 -0.939693 0   
     length 7.91399   
     axis 0 0 20   XYZ
    dof rx
    limits (-10.0 170.0)
  end
  begin
     id 4 
     name lfoot
     direction 0.0705293 -0.193778 0.978507   
     length 2.13618   
     axis -90 7.62852e-016 20   XYZ
    dof rx rz
    limits (-45.0 90.0)
           (-70.0 20.0)
  end
  begin
     id 5 
     name ltoes
     direction 1.53592e-011 -4.21925e-011 1   
     length 1.07518   
     axis -90 7.62852e-016 20   XYZ
    dof rx
    limits (-90.0 20.0)
  end
  begin
     id 6 
     name rhipjoint
     direction -0.57 -0.782963 0.249136   
     length 2.4047  
     axis 0 0 0  XYZ 
  end
  begin
     id 7 
     name rfemur
     direction -0.34202 -0.939693 0   
     length 7.51486   
     axis 0 0 -20   XYZ
    dof rx ry rz
    limits (-160.0 20.0)
           (-70.0 70.0)
           (-70.0 60.0)
  end
  begin
     id 8 
     name rtibia
     direction -0.34202 -0.939693 0   
     length 8.08317   
     axis 0 0 -20   XYZ
    dof rx
    limits (-10.0 170.0)
 end
 begin
     id 9 
     name rfoot
     direction -0.104954 -0.281256 0.953876   
     length 2.30343  
     axis -90 -7.62852e-016 -20   XYZ
    dof rx rz
    limits (-45.0 90.0)
           (-20.0 70.0)
  end
  begin
     id 10 
     name rtoes
     direction -1.53556e-011 -4.21922e-011 1   
     length 1.14803   
     axis -90 -7.62852e-016 -20   XYZ
    dof rx
    limits (-90.0 20.0)
  end
  begin
     id 11 
     name lowerback
     direction -0.0152855 0.99353 -0.11254   
     length 2.05311   
     axis 0 0 0   XYZ
    dof rx ry rz
    limits (-20.0 45.0)
           (-30.0 30.0)
           (-30.0 30.0)
  end
  begin
     id 12 
     name upperback
     direction -0.00157509 0.999443 -0.033332   
     length 2.06353   
     axis 0 0 0   XYZ
    dof rx ry rz
    limits (-20.0 45.0)
           (-30.0 30.0)
           (-30.0 30.0)
  end
  begin
     id 13 
     name thorax
     direction 0.00577788 0.999804 0.0189484   
     length 2.08472   
     axis 0 0 0   XYZ
    dof rx ry rz
    limits (-20.0 45.0)
           (-30.0 30.0)
           (-30.0 30.0)
  end
  begin
     id 14 
     name lowerneck
     direction -1.09301e-005 0.994719 0.10264   
     length 1.76249   
     axis 0 0 0   XYZ
    dof rx ry rz
    limits (-20.0 45.0)
           (-30.0 30.0)
           (-30.0 30.0)
  end
  begin
     id 15 
     name upperneck
     direction 0.0495018 0.988526 -0.142706   
     length 1.77897   
     axis 0 0 0   XYZ
    dof rx ry rz
    limits (-20.0 45.0)
           (-30.0 30.0)
           (-30.0 30.0)
  end
  begin
     id 16
     name head
     direction 0.0142736 0.998114 -0.0597101  
     length 1.78934  
     axis 0 0 0   XYZ
    dof rx ry rz
    limits (-20.0 45.0)
           (-30.0 30.0)
           (-30.0 30.0)
  end
  begin
     id 17 
     name lclavicle
     direction 0.918111 0.396107 -0.0130883  
     length 3.37276  
     axis 0 0 0   XYZ
    dof ry rz
    limits (-20.0 10.0)
           (0.0 20.0)
  end
  begin
     id 18 
     name lhumerus
     direction 1 -4.48975e-011 -3.26108e-027   
     length 5.34298   
     axis 180 -30 -90   XYZ
    dof rx ry rz
    limits (-60.0 90.0)
           (-90.0 90.0)
           (-90.0 90.0)
  end
  begin
     id 19
     name lradius
     direction 1 -4.48964e-011 -8.84413e-028   
     length 3.67262   
     axis 180 -30 -90   XYZ
    dof rx
    limits (-10.0 170.0)
  end
  begin
     id 20
     name lwrist
     direction 1 -4.48991e-011 -1.24264e-027   
     length 1.83631   
     axis -2.17013e-015 90 90   XYZ
    dof ry
    limits (-180.0 0.0)
 end
  begin
     id 21 
     name lhand
     direction 1 -4.48855e-011 -2.48528e-027   
     length 0.599298   
     axis 1.58582e-015 90 90   XYZ
    dof rx rz
    limits (-90.0 90.0)
           (-45.0 45.0)
  end
  begin
     id 22 
     name lfingers
     direction 1 -4.48811e-011 -4.97056e-027   
     length 0.48317   
     axis 3.17164e-015 90 90   XYZ
    dof rx
    limits (0.0 90.0)
  end
  begin
     id 23
     name lthumb
     direction 0.707107 -6.34882e-011 0.707107   
     length 0.693738   
     axis -90 45 2.85299e-015   XYZ
    dof rx rz
    limits (-45.0 45.0)
           (-45.0 45.0)
  end
  begin
     id 24 
     name rclavicle
     direction -0.920511 0.384752 -0.0680135   
     length 3.43787  
     axis 0 0 0   XYZ 
    dof ry rz
    limits (-10.0 20.0)
           (-20.0 0.0)
  end
  begin
     id 25 
     name rhumerus
     direction -0.999976 -0.00330524 0.00603274  
     length 5.5498   
     axis 180 30 90   XYZ
    dof rx ry rz
    limits (-90.0 60.0)
           (-90.0 90.0)
           (-90.0 90.0)
  end
  begin
     id 26 
     name rradius
     direction -1 -4.48967e-011 8.62438e-027   
     length 3.69401   
     axis 180 30 90   XYZ
    dof rx
    limits (-10.0 170.0)
  end
  begin
     id 27 
     name rwrist
     direction -1 -4.4897e-011 9.54866e-027   
     length 1.84701   
     axis -7.69462e-015 -90 -90   XYZ
    dof ry
    limits (-180.0 0.0)
  end
  begin
     id 28
     name rhand
     direction -1 -4.48982e-011 1.90973e-026   
     length 0.638113   
     axis -1.21857e-014 -90 -90   XYZ
    dof rx rz
    limits (-90.0 90.0)
           (-45.0 45.0)
  end
  begin
     id 29
     name rfingers
     direction -1 -4.48936e-011 3.81946e-026   
     length 0.514463   
     axis -2.43714e-014 -90 -90   XYZ
    dof rx
    limits (0.0 90.0)
  end
  begin
     id 30
     name rthumb
     direction -0.707107 -6.34942e-011 0.707107   
     length 0.738669   
     axis -90 -45 -2.85299e-015   XYZ
    dof rx rz
    limits (-45.0 45.0)
           (-45.0 45.0)
  end
:hierarchy
  begin
    root lhipjoint rhipjoint lowerback
    lhipjoint lfemur
    lfemur ltibia
    ltibia lfoot
    lfoot ltoes
    rhipjoint rfemur
    rfemur rtibia
    rtibia rfoot
    rfoot rtoes
    lowerback upperback
    upperback thorax
    thorax lowerneck lclavicle rclavicle
    lowerneck upperneck
    upperneck head
    lclavicle lhumerus
    lhumerus lradius
    lradius lwrist
    lwrist lhand lthumb
    lhand lfingers
    rclavicle rhumerus
    rhumerus rradius
    rradius rwrist
    rwrist rhand rthumb
    rhand rfingers
  end

#!OML:ASF F:\twosubjects\two\Thursday\Session 1\Rory.ASF
:FULLY-SPECIFIED
:DEGREES
182
root 20.2371 19.1162 27.9673 1.26103 -18.7791 4.13814
lowerback -0.513914 -3.15954 -7.6828
upperback 1.57215 -4.0558 -2.93353
thorax 2.23676 -2.12673 1.14648
lowerneck 8.36529 -20.4309 -14.6564
upperneck 8.63792 -31.4684 22.8684
head 7.3939 -15.7331 6.78041
rclavicle -4.16454e-014 -5.56597e-014
rhumerus -35.8088 -14.2072 -81.3697
rradius 31.4035
rwrist 15.6192
rhand -25.5459 20.427
rfingers 7.12502
rthumb 0.984375 -9.55052
lclavicle -4.16454e-014 -5.56597e-014
lhumerus -56.7774 33.8631 41.6381
lradius 14.8126
lwrist -43.6413
lhand -7.02497 33.2841
lfingers 7.12502
lthumb 18.8468 62.391
rfemur 9.61301 11.2408 16.4267
rtibia 26.8629
rfoot 1.73113 12.1221
rtoes -12.4655
lfemur -19.7795 3.22654 -21.7159
ltibia 14.3606
lfoot 1.30128 3.33355
ltoes 18.0107
183
root 20.2363 19.1299 28.1242 0.914578 -18.909 5.12211
lowerback -0.686564 -3.10558 -8.64924
upperback 1.57632 -3.94487 -3.24295
thorax 2.37754 -2.0891 1.34864
lowerneck 8.16573 -20.2345 -15.3413
upperneck 9.2419 -31.4685 23.2719
head 7.81324 -15.7015 6.92211
rclavicle 5.60573e-014 1.11319e-014
rhumerus -35.9864 -17.5411 -79.612
rradius 28.6911
rwrist 18.6611
rhand -25.2034 21.7955
rfingers 7.12502
rthumb 1.3151 -8.1802
lclavicle 5.60573e-014 1.11319e-014
lhumerus -55.5121 33.2467 43.322
lradius 15.1324
lwrist -42.2662
lhand -6.93392 33.3112
lfingers 7.12502
lthumb 18.9344 62.4097
rfemur 8.23375 11.0019 15.0166
rtibia 29.4349
rfoot 4.27563 12.638
rtoes -7.33344
lfemur -19.368 4.02507 -23.0437
ltibia 14.6201
lfoot 0.722248 2.45526
ltoes 5.70664
184
root 20.2333 19.1407 28.2757 0.587245 -19.1211 6.0657
lowerback -0.626777 -3.09314 -9.82302
upperback 1.43769 -3.92527 -3.37253
thorax 2.27285 -2.08977 1.86328
lowerneck 7.97873 -20.2039 -15.6866
upperneck 9.60157 -31.4634 22.9885
head 7.96338 -15.6809 6.83999
rclavicle -9.22361e-014 -2.8625e-014
rhumerus -36.5771 -20.3326 -77.5675
rradius 26.3282
rwrist 21.3599
rhand -24.7661 21.9331
rfingers 7.12502
rthumb 1.73747 -8.03956
lclavicle -9.22361e-014 -2.8625e-014
lhumerus -54.8954 33.0147 44.4319
lradius 15.5227
lwrist -41.4953
lhand -6.33281 32.8166
lfingers 7.12502
lthumb 19.5124 61.8574
rfemur 6.72264 10.8106 13.6586
rtibia 32.0419
rfoot 6.8345 13.2101
rtoes -4.43274
lfemur -18.9595 4.49395 -24.1981
ltibia 14.8308
lfoot 0.163292 2.09267
ltoes 7.16308
185
root 20.2415 19.1536 28.4254 0.321387 -19.3383 6.8593
lowerback -0.582714 -3.04115 -10.567
upperback 1.34695 -3.85674 -3.579
thorax 2.18391 -2.05949 2.0627
lowerneck 8.13719 -20.0826 -15.6578
upperneck 9.26865 -31.0999 22.488
head 7.65134 -15.543 6.79333
rclavicle -1.1947e-013 -1.59028e-014
rhumerus -37.6448 -22.1392 -75.8752
rradius 24.7275
rwrist 22.3349
rhand -23.7386 20.5914
rfingers 7.12502
rthumb 2.72981 -9.37084
lclavicle -1.1947e-013 -1.59028e-014
lhumerus -54.207 32.9056 45.3276
lradius 15.9665
lwrist -40.9068
lhand -5.85513 32.3545
lfingers 7.12502
lthumb 19.9716 61.3482
rfemur 5.11642 10.745 12.4594
rtibia 34.6463
rfoot 9.70782 13.4212
rtoes -3.05197
lfemur -18.4753 4.54314 -25.1485
ltibia 14.8522
lfoot -0.298424 2.12147
ltoes 20.1512
186
root 20.2475 19.1652 28.566 0.100151 -19.346 6.65958
lowerback -0.517398 -2.93636 -10.1328
upperback 1.65944 -3.70531 -3.72044
thorax 2.41793 -1.99529 1.67883
lowerneck 7.64491 -20.274 -15.6836
upperneck 9.1676 -31.3537 22.7271
head 7.80029 -15.625 6.74857
rclavicle -1.10425e-013 -3.4191e-014
rhumerus -38.4511 -25.6925 -73.5843
rradius 22.6917
rwrist 25.7781
rhand -23.3683 19.8843
rfingers 7.12502
rthumb 3.08743 -10.073
lclavicle -1.10425e-013 -3.4191e-014
lhumerus -52.4753 32.4562 47.0365
lradius 16.386
lwrist -39.7045
lhand -5.83865 32.2259
lfingers 7.12502
lthumb 19.9875 61.2179
rfemur 3.87658 10.5754 12.41
rtibia 37.1311
rfoot 12.4954 13.4455
rtoes -1.42266
lfemur -17.7011 4.65802 -25.1026
ltibia 14.8679
lfoot -0.823184 2.04578
ltoes 19.7075
187
root 20.2573 19.1765 28.7124 -0.105645 -19.4131 7.27268
lowerback -0.0243329 -3.0294 -10.8176
upperback 1.26477 -3.92577 -3.75056
thorax 1.79617 -2.07813 2.05546
lowerneck 7.63423 -20.1255 -15.8872
upperneck 9.31128 -31.115 22.3498
head 7.76093 -15.5165 6.70416
rclavicle -5.00937e-014 -3.4191e-014
rhumerus -40.0781 -29.2518 -70.0465
rradius 20.2896
rwrist 30.5414
rhand -23.6867 18.4749
rfingers 7.12502
rthumb 2.77988 -11.4868
lclavicle -5.00937e-014 -3.4191e-014
lhumerus -51.921 31.3094 48.7567
lradius 16.9778
lwrist -37.7409
lhand -5.58342 32.1598
lfingers 7.12502
lthumb 20.2328 61.126
rfemur 2.29944 10.4044 11.3952
rtibia 39.5791
rfoot 14.9346 13.9267
rtoes 0.317342
lfemur -17.1911 4.64092 -25.9108
ltibia 14.8334
lfoot -1.27354 2.10595
ltoes 21.4316
188
root 20.2722 19.1892 28.8659 -0.211191 -19.4037 7.85782
lowerback -0.00743257 -3.22618 -11.3332
upperback 1.0818 -4.20246 -3.85038
thorax 1.6581 -2.20922 2.2286
lowerneck 7.56649 -19.8976 -15.8397
upperneck 9.18254 -30.705 22.1309
head 7.597 -15.3258 6.71782
rclavicle 7.20594e-014 4.13472e-014
rhumerus -41.6177 -31.31 -67.4398
rradius 18.9851
rwrist 32.0872
rhand -23.0371 18.7144
rfingers 7.12502
rthumb 3.40728 -11.2381
lclavicle 7.20594e-014 4.13472e-014
lhumerus -50.8629 29.9634 50.794
lradius 17.473
lwrist -35.1846
lhand -6.0703 32.2873
lfingers 7.12502
lthumb 19.7648 61.3024
rfemur 0.676638 10.3458 10.412
rtibia 41.9566
rfoot 17.286 14.3389
rtoes 1.77362
lfemur -16.8199 4.5701 -26.7183
ltibia 14.8968
lfoot -1.55575 1.89593
ltoes 23.5963
189
root 20.2807 19.2082 29.012 -0.265434 -19.3504 8.0148
lowerback -0.072518 -3.19796 -11.3615
upperback 1.15258 -4.14809 -3.84035
thorax 1.76543 -2.18964 2.24897
lowerneck 7.37493 -20.0344 -16.1361
upperneck 8.80644 -30.8223 22.2155
head 7.59158 -15.3832 6.72499
rclavicle -4.70623e-014 -1.43125e-014
rhumerus -43.5022 -36.8605 -62.3368
rradius 16.6995
rwrist 37.97
rhand -23.917 23.8802
rfingers 7.12502
rthumb 2.55754 -6.08421
lclavicle -4.70623e-014 -1.43125e-014
lhumerus -49.0918 28.4449 53.4146
lradius 17.9632
lwrist -32.7695
lhand -7.16233 32.5464
lfingers 7.12502
lthumb 18.7147 61.6661
rfemur -0.90023 10.1233 9.96773
rtibia 44.3021
rfoot 19.1873 15.036
rtoes 1.37768
lfemur -16.3286 4.6872 -27.0796
ltibia 14.8693
lfoot -1.77844 1.46357
ltoes 22.9079
190
root 20.285 19.2247 29.1559 -0.220589 -19.1828 7.75285
lowerback 0.319662 -3.30888 -11.2879
upperback 0.921213 -4.37711 -3.60179
thorax 1.34283 -2.27713 2.48383
lowerneck 7.57762 -19.9439 -16.3933
upperneck 8.48499 -30.636 22.1096
head 7.43635 -15.3282 6.78782
rclavicle 9.69075e-014 7.95139e-015
rhumerus -47.0869 -40.7571 -56.4852
rradius 14.9166
rwrist 45.366
rhand -26.3593 25.7039
rfingers 7.12502
rthumb 0.198727 -4.27571
lclavicle 9.69075e-014 7.95139e-015
lhumerus -48.3759 27.1467 55.2933
lradius 18.6248
lwrist -31.1289
lhand -7.00338 32.3991
lfingers 7.12502
lthumb 18.8676 61.504
rfemur -2.40532 9.57766 10.0123
rtibia 46.5949
rfoot 20.1968 15.4813
rtoes 0.0717386
lfemur -15.8223 4.79227 -26.9907
ltibia 14.9389
lfoot -2.15591 1.02063
ltoes 19.9922
191
root 20.2903 19.2362 29.2959 -0.233199 -19.0363 7.44194
lowerback 0.0197058 -3.33019 -10.6887
upperback 1.33994 -4.32574 -3.74035
thorax 1.8876 -2.2812 1.98024
lowerneck 7.12127 -20.0204 -15.9492
upperneck 7.90576 -30.5812 22.3812
head 7.29189 -15.2767 6.79217
rclavicle 4.55714e-014 -2.8625e-014
rhumerus -49.692 -43.8675 -52.7457
rradius 14.0721
rwrist 49.499
rhand -25.7881 22.2725
rfingers 7.12502
rthumb 0.750357 -7.70593
lclavicle 4.55714e-014 -2.8625e-014
lhumerus -46.4652 26.3921 56.8335
lradius 18.9339
lwrist -30.6225
lhand -6.88632 31.8747
lfingers 7.12502
lthumb 18.9801 60.9687
rfemur -3.75672 9.37476 10.1815
rtibia 48.8201
rfoot 20.7029 14.8709
rtoes -2.58201
lfemur -15.3632 4.75062 -26.8131
ltibia 15.2498
lfoot -2.74342 0.793639
ltoes 18.3478
192
root 20.2966 19.2328 29.4245 -0.385071 -18.9965 7.65026
lowerback -0.00480829 -3.35194 -10.771
upperback 1.53104 -4.3324 -3.87086
thorax 2.09905 -2.29942 1.87873
lowerneck 6.74937 -20.0817 -15.5986
upperneck 7.50121 -30.4945 22.3049
head 7.13574 -15.2174 6.71827
rclavicle 1.83876e-014 -3.4191e-014
rhumerus -50.1193 -43.7865 -52.4354
rradius 14.1925
rwrist 48.1023
rhand -22.6338 18.9646
rfingers 7.12502
rthumb 3.7967 -10.9813
lclavicle 1.83876e-014 -3.4191e-014
lhumerus -44.9212 25.6474 58.2388
lradius 19.251
lwrist -29.9815
lhand -7.89555 31.3141
lfingers 7.12502
lthumb 18.0093 60.5003
rfemur -5.12421 9.46582 9.82414
rtibia 50.9816
rfoot 20.9827 14.35
rtoes -9.86777
lfemur -15.111 4.79078 -27.1614
ltibia 15.8373
lfoot -3.45896 0.566823
ltoes 18.1377
193
root 20.3065 19.2247 29.5625 -0.33653 -18.8037 7.70895
lowerback -0.235459 -3.39594 -10.6273
upperback 1.67567 -4.34528 -3.92579
thorax 2.36686 -2.31821 1.72124
lowerneck 6.52701 -20.1573 -15.3849
upperneck 6.98772 -30.4423 22.3011
head 6.96287 -15.1915 6.69179
rclavicle 1.98785e-014 1.19271e-014
rhumerus -50.786 -43.2861 -51.8649
rradius 14.3246
rwrist 47.338
rhand -19.955 15.8583
rfingers 7.12502
rthumb 6.38329 -14.0255
lclavicle 1.98785e-014 1.19271e-014
lhumerus -43.1969 23.9597 60.3306
lradius 19.7155
lwrist -28.1528
lhand -8.57708 31.2012
lfingers 7.12502
lthumb 17.3535 60.4465
rfemur -6.56765 9.20711 9.60222
rtibia 53.0921
rfoot 20.6869 13.6775
rtoes -15.0963
lfemur -15.0531 4.93766 -27.4129
ltibia 16.5349
lfoot -4.12765 0.0223151
ltoes 16.3582
194
root 20.3167 19.2274 29.7126 -0.140422 -18.4612 7.24768
lowerback -0.594091 -3.42957 -9.82517
upperback 1.89658 -4.33347 -3.88877
thorax 2.73847 -2.31848 1.29226
lowerneck 6.29779 -20.2858 -15.3099
upperneck 6.54938 -30.5157 22.4287
head 6.88605 -15.2226 6.68681
rclavicle 3.93594e-014 6.2816e-014
rhumerus -53.4656 -45.1861 -48.0741
rradius 13.8711
rwrist 50.7639
rhand -18.0899 13.7946
rfingers 7.12502
rthumb 8.18356 -16.0269
lclavicle 3.93594e-014 6.2816e-014
lhumerus -41.4443 22.2663 62.2977
lradius 20.2177
lwrist -26.6209
lhand -8.62863 31.3735
lfingers 7.12502
lthumb 17.3039 60.6232
rfemur -7.87413 8.78282 9.99932
rtibia 55.1053
rfoot 19.8376 12.2806
rtoes -13.6925
lfemur -14.9311 5.15254 -27.161
ltibia 17.1886
lfoot -4.79646 -0.675818
ltoes 13.8254
195
root 20.3252 19.221 29.8525 -0.118802 -18.1298 7.21418
lowerback -1.45698 -3.44496 -9.31891
upperback 2.57353 -4.19122 -4.12413
thorax 3.86692 -2.28806 0.689268
lowerneck 5.61192 -20.4347 -14.9627
upperneck 6.0263 -30.6079 22.9336
head 6.88789 -15.2256 6.70529
rclavicle -2.11706e-014 3.26007e-014
rhumerus -55.413 -47.5287 -45.2612
rradius 13.5114
rwrist 53.9519
rhand -16.4266 12.9992
rfingers 7.12502
rthumb 9.78862 -16.7533
lclavicle -2.11706e-014 3.26007e-014
lhumerus -38.9785 21.4529 63.7069
lradius 20.3769
lwrist -26.3685
lhand -9.13015 31.0302
lfingers 7.12502
lthumb 16.8211 60.3216
rfemur -9.17266 8.3223 9.9679
rtibia 57.0399
rfoot 18.8391 10.7668
rtoes -15.9864
lfemur -14.7449 5.86145 -27.3893
ltibia 17.7051
lfoot -5.44554 -1.73184
ltoes 12.1304
